<svg xmlns="http://www.w3.org/2000/svg" viewBox="0 0 143.41 44.11"><defs><style>.cls-1{fill:#fff;}.cls-2{fill:#005cb9;}.cls-3{fill:#ffbf3c;}.cls-4{fill:#009845;}.cls-5{fill:#ccdbf1;}</style></defs><g id="Camada_2" data-name="Camada 2"><g id="Camada_1-2" data-name="Camada 1"><path class="cls-1" d="M25.83,3c17.22-6,34-2.25,37.42,8.27s-7.89,24-25.11,29.94S4.12,43.42.73,32.89,8.61,8.92,25.83,3"/><path class="cls-2" d="M46.62,20.26l.47,0a.4.4,0,0,0,.45-.43q0-.73-.12-1.47a.41.41,0,0,0-.3-.35l-.47-.12a.41.41,0,0,0-.51.44c0,.49.09,1,.11,1.5a.41.41,0,0,0,.37.38"/><path class="cls-2" d="M46.64,26.21l.47-.12a.43.43,0,0,0,.3-.36c.05-.48.09-1,.13-1.47a.42.42,0,0,0-.46-.43l-.47.05a.41.41,0,0,0-.36.39q0,.75-.12,1.5a.42.42,0,0,0,.51.44"/><path class="cls-2" d="M17.64,22c0-.25,0-.49,0-.74a.42.42,0,0,0-.44-.42l-.48,0a.4.4,0,0,0-.37.4c0,.24,0,.48,0,.72s0,.54,0,.81a.41.41,0,0,0,.38.4l.47,0a.41.41,0,0,0,.44-.42c0-.27,0-.54,0-.82"/><path class="cls-2" d="M44,16.89l1,.22a.41.41,0,0,0,.49-.46c-.09-.6-.18-1.2-.29-1.78a.43.43,0,0,0-.28-.32l-1-.32a.42.42,0,0,0-.52.47c.1.6.19,1.22.26,1.84a.4.4,0,0,0,.33.35"/><path class="cls-2" d="M19.7,17.44l-1.06.2a.39.39,0,0,0-.32.36c-.06.56-.11,1.13-.14,1.71a.4.4,0,0,0,.44.43c.35,0,.7-.07,1.06-.09a.42.42,0,0,0,.37-.39c0-.6.07-1.2.13-1.78a.41.41,0,0,0-.48-.44"/><path class="cls-2" d="M19.68,24.1,18.63,24a.41.41,0,0,0-.45.43c0,.58.08,1.15.14,1.71a.42.42,0,0,0,.33.36l1.05.2a.42.42,0,0,0,.49-.44c-.06-.59-.1-1.18-.13-1.78a.42.42,0,0,0-.38-.39"/><path class="cls-2" d="M44,22c0,.33,0,.65,0,1a.42.42,0,0,0,.43.42l1.07-.06a.41.41,0,0,0,.38-.4c0-.31,0-.62,0-.93s0-.56,0-.84a.4.4,0,0,0-.38-.4l-1.06-.06a.41.41,0,0,0-.44.41c0,.3,0,.59,0,.89"/><path class="cls-2" d="M42.33,12.7c-.06-.34-.14-.67-.21-1a.45.45,0,0,0-.29-.31L40.24,11a.41.41,0,0,0-.49.48l.18,1a.4.4,0,0,0,.33.33c.54.11,1.07.22,1.58.35a.41.41,0,0,0,.49-.49"/><path class="cls-2" d="M21.64,31.45c.07.34.14.67.22,1a.4.4,0,0,0,.29.3c.51.15,1,.28,1.58.41a.41.41,0,0,0,.49-.48l-.18-1a.4.4,0,0,0-.33-.33c-.54-.11-1.07-.22-1.58-.35a.41.41,0,0,0-.49.49"/><path class="cls-2" d="M23.57,16q.11-1.07.24-2.1a.41.41,0,0,0-.47-.46c-.58.11-1.14.23-1.69.36a.41.41,0,0,0-.3.33c-.12.67-.22,1.34-.3,2a.4.4,0,0,0,.47.45c.55-.09,1.12-.17,1.69-.24a.42.42,0,0,0,.36-.37"/><path class="cls-2" d="M40.38,28.13c-.07.72-.16,1.42-.25,2.11a.4.4,0,0,0,.48.45c.57-.11,1.13-.23,1.67-.36a.39.39,0,0,0,.31-.32c.12-.67.22-1.34.3-2a.41.41,0,0,0-.47-.46l-1.69.25a.39.39,0,0,0-.35.36"/><path class="cls-2" d="M23.22,27.77l-1.69-.25a.42.42,0,0,0-.47.46c.09.69.19,1.36.3,2a.39.39,0,0,0,.31.32q.81.2,1.68.36a.41.41,0,0,0,.48-.45c-.1-.69-.18-1.39-.25-2.11a.4.4,0,0,0-.36-.36"/><path class="cls-2" d="M41,27.21,42.7,27A.4.4,0,0,0,43,26.6c.06-.64.11-1.3.15-2a.42.42,0,0,0-.44-.43L41,24.32a.4.4,0,0,0-.38.39c0,.69-.07,1.38-.12,2.06a.41.41,0,0,0,.45.44"/><path class="cls-2" d="M41,19.83l1.75.1a.4.4,0,0,0,.43-.42c0-.67-.08-1.32-.14-2a.41.41,0,0,0-.34-.36c-.57-.09-1.16-.17-1.75-.24a.41.41,0,0,0-.46.44c0,.67.09,1.36.12,2.06a.41.41,0,0,0,.39.39"/><path class="cls-2" d="M23.28,22c0-.35,0-.69,0-1a.41.41,0,0,0-.42-.42l-1.77.07a.41.41,0,0,0-.39.4c0,.33,0,.65,0,1s0,.71,0,1.06a.4.4,0,0,0,.39.4l1.77.08a.42.42,0,0,0,.42-.42c0-.37,0-.74,0-1.12"/><path class="cls-2" d="M25.22,34.6l.15.66a.41.41,0,0,0,.32.31c.64.13,1.3.24,2,.33a.41.41,0,0,0,.46-.46c0-.23-.07-.45-.1-.68a.41.41,0,0,0-.35-.36c-.67-.08-1.33-.17-2-.29a.42.42,0,0,0-.48.49"/><path class="cls-2" d="M36.21,32.21c0,.38-.07.76-.11,1.13a.41.41,0,0,0,.45.46c.73-.09,1.44-.2,2.14-.33a.4.4,0,0,0,.33-.33c.07-.36.13-.73.19-1.11a.41.41,0,0,0-.47-.47c-.7.11-1.42.21-2.16.28a.42.42,0,0,0-.37.37"/><path class="cls-2" d="M39.22,12.12c0-.38-.12-.75-.18-1.11a.44.44,0,0,0-.33-.34c-.7-.12-1.42-.23-2.15-.32a.41.41,0,0,0-.45.45c0,.37.08.75.11,1.14a.42.42,0,0,0,.37.37c.74.07,1.46.16,2.17.27a.4.4,0,0,0,.46-.46"/><path class="cls-2" d="M39.68,15.76c-.07-.76-.16-1.5-.25-2.22a.4.4,0,0,0-.34-.35c-.75-.12-1.52-.21-2.3-.29a.41.41,0,0,0-.44.44q.09,1.11.15,2.28a.41.41,0,0,0,.38.38c.8.06,1.59.12,2.35.2a.41.41,0,0,0,.45-.44"/><path class="cls-2" d="M24.28,28.39c.07.75.16,1.49.25,2.22a.42.42,0,0,0,.35.35c.74.11,1.51.21,2.29.29a.42.42,0,0,0,.45-.44c-.06-.75-.12-1.51-.16-2.28a.42.42,0,0,0-.38-.39c-.8-.05-1.59-.12-2.35-.2a.42.42,0,0,0-.45.45"/><path class="cls-2" d="M27.45,15.62c.05-.78.1-1.54.16-2.28a.42.42,0,0,0-.45-.44c-.78.08-1.55.17-2.29.29a.42.42,0,0,0-.35.35c-.09.72-.18,1.46-.25,2.22a.41.41,0,0,0,.45.44c.77-.08,1.55-.14,2.35-.2a.4.4,0,0,0,.38-.38"/><path class="cls-2" d="M26.91,24.47l-2.44-.08a.41.41,0,0,0-.43.42c0,.74.07,1.47.12,2.18a.42.42,0,0,0,.37.38c.79.08,1.6.14,2.42.19a.4.4,0,0,0,.44-.42c0-.75-.06-1.5-.08-2.27a.41.41,0,0,0-.4-.4"/><path class="cls-2" d="M36.64,24.87c0,.77,0,1.52-.07,2.27a.4.4,0,0,0,.43.42c.83,0,1.63-.11,2.42-.19a.42.42,0,0,0,.37-.38c.05-.71.09-1.44.12-2.18a.4.4,0,0,0-.42-.42L37,24.47a.42.42,0,0,0-.4.4"/><path class="cls-2" d="M37,19.67c.84,0,1.66,0,2.45.09a.41.41,0,0,0,.42-.43c0-.73-.06-1.46-.12-2.18a.4.4,0,0,0-.36-.38c-.79-.07-1.6-.14-2.43-.19a.41.41,0,0,0-.43.43c0,.74.06,1.5.07,2.26a.41.41,0,0,0,.4.4"/><path class="cls-2" d="M27.31,19.27c0-.76,0-1.52.07-2.26a.41.41,0,0,0-.43-.43c-.83.05-1.64.12-2.42.2a.39.39,0,0,0-.37.37c-.05.72-.09,1.45-.12,2.18a.41.41,0,0,0,.42.43c.8,0,1.61-.07,2.45-.09a.41.41,0,0,0,.4-.4"/><path class="cls-2" d="M36.68,22c0,.41,0,.82,0,1.23a.41.41,0,0,0,.42.41c.84,0,1.67,0,2.47-.06a.41.41,0,0,0,.4-.4c0-.39,0-.78,0-1.18s0-.73,0-1.1a.41.41,0,0,0-.4-.4l-2.47-.06a.42.42,0,0,0-.42.42c0,.37,0,.76,0,1.14"/><path class="cls-2" d="M27.28,22V20.89a.41.41,0,0,0-.42-.42l-2.47.06a.4.4,0,0,0-.39.4c0,.37,0,.73,0,1.1s0,.79,0,1.18a.39.39,0,0,0,.39.4c.81,0,1.63.05,2.48.06a.39.39,0,0,0,.41-.41V22"/><path class="cls-2" d="M32.37,35.05c0,.24,0,.48,0,.71a.42.42,0,0,0,.42.42c.63,0,1.26,0,1.88-.1a.43.43,0,0,0,.38-.37c0-.23.05-.46.07-.7a.4.4,0,0,0-.43-.45c-.63,0-1.27.07-1.91.09a.4.4,0,0,0-.4.4"/><path class="cls-2" d="M35.12,9.14c0-.24,0-.48-.08-.71a.41.41,0,0,0-.37-.36C34.05,8,33.42,8,32.78,8a.41.41,0,0,0-.42.42c0,.23,0,.47,0,.71a.41.41,0,0,0,.4.4c.65,0,1.28,0,1.91.09a.41.41,0,0,0,.44-.45"/><path class="cls-2" d="M28.6,32.42c0,.39.07.79.1,1.17a.41.41,0,0,0,.38.37c.68,0,1.37.08,2.07.1a.41.41,0,0,0,.42-.41c0-.39,0-.78,0-1.18a.43.43,0,0,0-.41-.41c-.71,0-1.42,0-2.11-.08a.41.41,0,0,0-.44.44"/><path class="cls-2" d="M31.56,11.68c0-.4,0-.79,0-1.18a.41.41,0,0,0-.42-.41c-.7,0-1.4,0-2.08.1a.41.41,0,0,0-.38.37c0,.38-.06.77-.1,1.17a.41.41,0,0,0,.44.44c.7-.05,1.4-.07,2.12-.09a.42.42,0,0,0,.41-.4"/><path class="cls-2" d="M35.59,15.48c0-.8-.08-1.58-.13-2.34a.41.41,0,0,0-.38-.38q-1.11-.07-2.25-.09a.41.41,0,0,0-.42.41c0,.77,0,1.55,0,2.36a.4.4,0,0,0,.4.4c.79,0,1.57,0,2.33.07a.41.41,0,0,0,.43-.43"/><path class="cls-2" d="M32.43,28.71c0,.8,0,1.59,0,2.35a.41.41,0,0,0,.42.41c.76,0,1.5,0,2.24-.09a.39.39,0,0,0,.38-.38c0-.76.1-1.54.13-2.33a.4.4,0,0,0-.42-.43c-.76,0-1.54.05-2.33.06a.4.4,0,0,0-.4.41"/><path class="cls-2" d="M28.25,24.93c0,.79,0,1.57.06,2.33a.41.41,0,0,0,.39.39c.79,0,1.59.05,2.41.06a.41.41,0,0,0,.41-.41c0-.77,0-1.55,0-2.35a.41.41,0,0,0-.41-.41c-.82,0-1.64,0-2.44,0a.41.41,0,0,0-.41.42"/><path class="cls-2" d="M31.51,19.2c0-.8,0-1.59,0-2.36a.41.41,0,0,0-.41-.41c-.82,0-1.62,0-2.41.06a.41.41,0,0,0-.39.4c0,.76,0,1.53-.07,2.32a.41.41,0,0,0,.42.42l2.44,0a.4.4,0,0,0,.41-.4"/><path class="cls-2" d="M35.33,20.45l-2.47,0a.41.41,0,0,0-.41.41v2.47a.41.41,0,0,0,.41.41l2.47,0a.4.4,0,0,0,.4-.41c0-.41,0-.84,0-1.26s0-.79,0-1.18a.4.4,0,0,0-.4-.4"/><path class="cls-2" d="M31.6,7h0a.41.41,0,0,1-.39.41c-.64,0-1.29.06-1.72.09A.42.42,0,0,1,29.06,7a.41.41,0,0,1,.38-.35c.43,0,1.2-.08,1.74-.1A.41.41,0,0,1,31.6,7"/><path class="cls-2" d="M31.63,37.18h0a.41.41,0,0,0-.39-.41c-.64,0-1.29-.06-1.72-.09a.41.41,0,0,0-.43.46.42.42,0,0,0,.38.36l1.74.1a.41.41,0,0,0,.42-.41"/><path class="cls-3" d="M32.42,2.79a.48.48,0,0,0,0,.94C40.59,5.53,42.77,13,47.94,16.44A10.25,10.25,0,0,0,52,18.07a1,1,0,0,1,.82.95C52.73,27,41,29.27,39.54,38.18a.48.48,0,0,0,.66.53C56.76,31.4,64,20.17,61.38,11.7,59.66,6.22,51-1.15,32.42,2.79"/><path class="cls-4" d="M31.56,41.36a.48.48,0,0,0,0-.93C23.39,38.62,21.2,31.21,16,27.71A10,10,0,0,0,12,26.09a1,1,0,0,1-.81-1c.08-8,11.77-10.24,13.26-19.16a.48.48,0,0,0-.66-.52C7.22,12.76-.07,24,2.59,32.45c1.72,5.49,10.73,12.74,29,8.91"/><path class="cls-5" d="M42,.24A49.92,49.92,0,0,0,25.87,3.07C8.69,9-2.53,22.39.84,32.86,2,36.31,4.59,39.15,8.47,41.09c7.46,3.72,18.82,3.7,29.63-.05,17.18-5.95,28.4-19.31,25-29.78C62,7.81,59.38,5,55.5,3A30.43,30.43,0,0,0,42,.24M22,44.11a30.79,30.79,0,0,1-13.61-2.8c-3.94-2-6.62-4.86-7.75-8.38C-2.81,22.34,8.49,8.83,25.79,2.84l0,.11,0-.11c10.88-3.77,22.3-3.79,29.82,0,3.94,2,6.62,4.86,7.75,8.37,3.42,10.6-7.88,24.1-25.18,30.1A50.07,50.07,0,0,1,22,44.11"/><path class="cls-2" d="M81.54,32.56,82.6,11.35h10c2,4,3.94,8,5.69,11.89,0,0,.47-7.85.51-11.89H106l-1,21.21H95.49c-2-3.88-4.16-7.79-5.85-11.61L89.2,32.56Z"/><path class="cls-2" d="M118.22,17.76c0-1,1.67-1,2.3-1a12.23,12.23,0,0,1,4.39.8l-.27-6a32.18,32.18,0,0,0-6.18-.53c-6.55.15-8.64,3.5-8.58,6.3.11,5.12,7.12,7,7.16,9.07,0,.95-1.66,1-2.39,1a15.33,15.33,0,0,1-5.2-1l-.27,6.09a55,55,0,0,0,7.28.66c7-.15,9-3.79,8.92-6.84-.1-4.45-7.12-6.59-7.16-8.5"/><path class="cls-2" d="M136.26,17.76c0-1,1.66-1,2.29-1a12.19,12.19,0,0,1,4.39.8l-.27-6a32.12,32.12,0,0,0-6.18-.53c-6.55.15-8.64,3.5-8.58,6.3.11,5.12,7.12,7,7.17,9.07,0,.95-1.67,1-2.4,1a15.32,15.32,0,0,1-5.19-1l-.28,6.09a55.17,55.17,0,0,0,7.28.66c7-.15,9-3.79,8.92-6.84-.1-4.45-7.11-6.59-7.15-8.5"/><polygon class="cls-2" points="68.4 32.66 69.36 11.45 77.94 11.45 77.02 32.66 68.4 32.66"/></g></g></svg>